<?xml version="1.0" encoding="UTF-8"?><svg xmlns="http://www.w3.org/2000/svg" xmlns:xlink="http://www.w3.org/1999/xlink" contentScriptType="text/ecmascript" width="375" zoomAndPan="magnify" contentStyleType="text/css" viewBox="0 0 375 374.999991" height="374.999991" preserveAspectRatio="xMidYMid meet" version="1.0"><defs><clipPath id="clip-0"><path d="M 5 21 L 370.925781 21 L 370.925781 342.75 L 5 342.75 Z M 5 21 " clip-rule="nonzero"/></clipPath><clipPath id="clip-1"><path d="M 5 21 L 370.925781 21 L 370.925781 98 L 5 98 Z M 5 21 " clip-rule="nonzero"/></clipPath></defs><path fill="rgb(79.998779%, 93.728638%, 98.81897%)" d="M 352.101562 24.285156 L 23.609375 24.285156 C 14.992188 24.285156 7.984375 31.800781 7.984375 41.035156 L 7.984375 323.054688 C 7.984375 332.292969 14.992188 339.808594 23.609375 339.808594 L 352.101562 339.808594 C 360.71875 339.808594 367.726562 332.292969 367.726562 323.054688 L 367.726562 41.035156 C 367.726562 31.800781 360.71875 24.285156 352.101562 24.285156 " fill-opacity="1" fill-rule="nonzero"/><g clip-path="url(#clip-0)"><path fill="rgb(42.349243%, 30.589294%, 67.059326%)" d="M 352.101562 24.285156 L 352.101562 21.402344 L 23.609375 21.402344 C 18.453125 21.402344 13.777344 23.664062 10.460938 27.230469 C 7.136719 30.796875 5.105469 35.6875 5.105469 41.035156 L 5.105469 323.054688 C 5.105469 328.402344 7.136719 333.292969 10.460938 336.859375 C 13.777344 340.417969 18.453125 342.6875 23.609375 342.6875 L 352.101562 342.6875 C 357.257812 342.6875 361.933594 340.417969 365.25 336.859375 C 368.574219 333.292969 370.605469 328.402344 370.605469 323.054688 L 370.605469 41.035156 C 370.605469 35.6875 368.574219 30.796875 365.25 27.230469 C 361.933594 23.664062 357.257812 21.402344 352.101562 21.402344 L 352.101562 27.164062 C 355.558594 27.171875 358.691406 28.660156 361.039062 31.164062 C 363.371094 33.660156 364.84375 37.148438 364.84375 41.035156 L 364.84375 323.054688 C 364.84375 326.9375 363.371094 330.421875 361.039062 332.925781 C 358.691406 335.429688 355.558594 336.921875 352.101562 336.925781 L 23.609375 336.925781 C 20.152344 336.921875 17.011719 335.429688 14.671875 332.925781 C 12.339844 330.421875 10.859375 326.9375 10.859375 323.054688 L 10.859375 41.035156 C 10.859375 37.148438 12.339844 33.660156 14.671875 31.164062 C 17.011719 28.660156 20.152344 27.171875 23.609375 27.164062 L 352.101562 27.164062 L 352.101562 24.285156 " fill-opacity="1" fill-rule="nonzero"/></g><path fill="rgb(97.648621%, 69.018555%, 85.879517%)" d="M 367.726562 94.738281 L 367.726562 44.875 C 367.726562 33.519531 360.71875 24.285156 352.101562 24.285156 L 23.609375 24.285156 C 14.992188 24.285156 7.984375 33.519531 7.984375 44.875 L 7.984375 94.738281 L 367.726562 94.738281 " fill-opacity="1" fill-rule="nonzero"/><g clip-path="url(#clip-1)"><path fill="rgb(42.349243%, 30.589294%, 67.059326%)" d="M 367.726562 94.738281 L 370.605469 94.738281 L 370.605469 44.875 C 370.597656 38.601562 368.6875 32.867188 365.4375 28.582031 C 363.8125 26.4375 361.835938 24.648438 359.582031 23.390625 C 357.328125 22.128906 354.773438 21.402344 352.101562 21.402344 L 23.609375 21.402344 C 20.9375 21.402344 18.386719 22.128906 16.128906 23.390625 C 12.738281 25.285156 10 28.339844 8.09375 32.054688 C 6.1875 35.769531 5.105469 40.171875 5.105469 44.875 L 5.105469 94.738281 C 5.105469 95.496094 5.410156 96.238281 5.945312 96.773438 C 6.484375 97.308594 7.226562 97.617188 7.984375 97.617188 L 367.726562 97.617188 C 368.496094 97.617188 369.214844 97.320312 369.761719 96.773438 C 370.308594 96.230469 370.605469 95.507812 370.605469 94.738281 L 367.726562 94.738281 L 367.726562 91.859375 L 10.859375 91.859375 L 10.859375 44.875 C 10.859375 39.789062 12.453125 35.226562 14.859375 32.0625 C 16.0625 30.476562 17.457031 29.246094 18.9375 28.417969 C 20.421875 27.597656 21.972656 27.164062 23.609375 27.164062 L 352.101562 27.164062 C 353.738281 27.164062 355.289062 27.597656 356.773438 28.417969 C 358.992188 29.652344 361.027344 31.824219 362.488281 34.6875 C 363.957031 37.542969 364.84375 41.058594 364.84375 44.875 L 364.84375 94.738281 L 367.726562 94.738281 L 367.726562 91.859375 L 367.726562 94.738281 " fill-opacity="1" fill-rule="nonzero"/></g><path fill="rgb(100%, 100%, 100%)" d="M 98.976562 67.230469 L 98.605469 67.230469 C 89.101562 67.230469 81.328125 59.453125 81.328125 49.949219 L 81.328125 20.136719 C 81.328125 10.632812 89.101562 2.855469 98.605469 2.855469 L 98.976562 2.855469 C 108.484375 2.855469 116.253906 10.632812 116.253906 20.136719 L 116.253906 49.949219 C 116.253906 59.453125 108.484375 67.230469 98.976562 67.230469 " fill-opacity="1" fill-rule="nonzero"/><path fill="rgb(42.349243%, 30.589294%, 67.059326%)" d="M 98.976562 67.230469 L 98.976562 64.347656 L 98.605469 64.347656 C 94.648438 64.347656 91.066406 62.734375 88.4375 60.113281 C 85.824219 57.492188 84.210938 53.90625 84.210938 49.949219 L 84.210938 20.136719 C 84.210938 16.179688 85.824219 12.59375 88.4375 9.96875 C 91.066406 7.351562 94.648438 5.738281 98.605469 5.738281 L 98.976562 5.738281 C 102.9375 5.738281 106.519531 7.351562 109.148438 9.96875 C 111.761719 12.59375 113.375 16.179688 113.375 20.136719 L 113.375 49.949219 C 113.375 53.90625 111.761719 57.492188 109.148438 60.113281 C 106.519531 62.734375 102.9375 64.347656 98.976562 64.347656 L 98.976562 70.109375 C 110.085938 70.097656 119.125 61.058594 119.136719 49.949219 L 119.136719 20.136719 C 119.125 9.027344 110.085938 -0.0117188 98.976562 -0.0234375 L 98.605469 -0.0234375 C 87.5 -0.0117188 78.460938 9.027344 78.449219 20.136719 L 78.449219 49.949219 C 78.460938 61.058594 87.5 70.097656 98.605469 70.109375 L 98.976562 70.109375 L 98.976562 67.230469 " fill-opacity="1" fill-rule="nonzero"/><path fill="rgb(100%, 100%, 100%)" d="M 287.582031 67.230469 L 287.210938 67.230469 C 277.707031 67.230469 269.933594 59.453125 269.933594 49.949219 L 269.933594 20.136719 C 269.933594 10.632812 277.707031 2.855469 287.210938 2.855469 L 287.582031 2.855469 C 297.082031 2.855469 304.859375 10.632812 304.859375 20.136719 L 304.859375 49.949219 C 304.859375 59.453125 297.082031 67.230469 287.582031 67.230469 " fill-opacity="1" fill-rule="nonzero"/><path fill="rgb(42.349243%, 30.589294%, 67.059326%)" d="M 287.582031 67.230469 L 287.582031 64.347656 L 287.210938 64.347656 C 283.25 64.347656 279.667969 62.734375 277.042969 60.113281 C 274.421875 57.492188 272.8125 53.90625 272.8125 49.949219 L 272.8125 20.136719 C 272.8125 16.179688 274.421875 12.59375 277.042969 9.96875 C 279.667969 7.351562 283.25 5.738281 287.210938 5.738281 L 287.582031 5.738281 C 291.535156 5.738281 295.125 7.351562 297.746094 9.96875 C 300.367188 12.59375 301.980469 16.179688 301.980469 20.136719 L 301.980469 49.949219 C 301.980469 53.90625 300.367188 57.492188 297.746094 60.113281 C 295.125 62.734375 291.535156 64.347656 287.582031 64.347656 L 287.582031 70.109375 C 298.691406 70.097656 307.726562 61.058594 307.738281 49.949219 L 307.738281 20.136719 C 307.726562 9.027344 298.691406 -0.0117188 287.582031 -0.0234375 L 287.210938 -0.0234375 C 276.101562 -0.0117188 267.066406 9.027344 267.054688 20.136719 L 267.054688 49.949219 C 267.066406 61.058594 276.101562 70.097656 287.210938 70.109375 L 287.582031 70.109375 L 287.582031 67.230469 " fill-opacity="1" fill-rule="nonzero"/><path fill="rgb(42.349243%, 30.589294%, 67.059326%)" d="M 19.078125 120.46875 L 19.078125 282.769531 C 19.078125 284.355469 20.363281 285.648438 21.957031 285.648438 C 23.542969 285.648438 24.835938 284.355469 24.835938 282.769531 L 24.835938 120.46875 C 24.835938 118.875 23.542969 117.589844 21.957031 117.589844 C 20.363281 117.589844 19.078125 118.875 19.078125 120.46875 " fill-opacity="1" fill-rule="nonzero"/><path fill="rgb(42.349243%, 30.589294%, 67.059326%)" d="M 33.597656 324.808594 L 144.195312 324.808594 C 145.789062 324.808594 147.074219 323.519531 147.074219 321.929688 C 147.074219 320.335938 145.789062 319.046875 144.195312 319.046875 L 33.597656 319.046875 C 32.007812 319.046875 30.71875 320.335938 30.71875 321.929688 C 30.71875 323.519531 32.007812 324.808594 33.597656 324.808594 " fill-opacity="1" fill-rule="nonzero"/><path fill="rgb(42.349243%, 30.589294%, 67.059326%)" d="M 19.078125 35.039062 L 19.078125 83.207031 C 19.078125 84.796875 20.363281 86.085938 21.957031 86.085938 C 23.542969 86.085938 24.835938 84.796875 24.835938 83.207031 L 24.835938 35.039062 C 24.835938 33.453125 23.542969 32.160156 21.957031 32.160156 C 20.363281 32.160156 19.078125 33.453125 19.078125 35.039062 " fill-opacity="1" fill-rule="nonzero"/><path fill="rgb(71.759033%, 59.999084%, 82.749939%)" d="M 92.992188 156.855469 L 53.394531 156.855469 L 53.394531 119.191406 L 92.992188 119.191406 L 92.992188 156.855469 " fill-opacity="1" fill-rule="nonzero"/><path fill="rgb(71.759033%, 59.999084%, 82.749939%)" d="M 141.242188 156.742188 L 101.644531 156.742188 L 101.644531 119.078125 L 141.242188 119.078125 L 141.242188 156.742188 " fill-opacity="1" fill-rule="nonzero"/><path fill="rgb(71.759033%, 59.999084%, 82.749939%)" d="M 189.496094 156.628906 L 149.898438 156.628906 L 149.898438 118.960938 L 189.496094 118.960938 L 189.496094 156.628906 " fill-opacity="1" fill-rule="nonzero"/><path fill="rgb(71.759033%, 59.999084%, 82.749939%)" d="M 237.746094 156.511719 L 198.148438 156.511719 L 198.148438 118.847656 L 237.746094 118.847656 L 237.746094 156.511719 " fill-opacity="1" fill-rule="nonzero"/><path fill="rgb(71.759033%, 59.999084%, 82.749939%)" d="M 285.996094 156.398438 L 246.398438 156.398438 L 246.398438 118.734375 L 285.996094 118.734375 L 285.996094 156.398438 " fill-opacity="1" fill-rule="nonzero"/><path fill="rgb(71.759033%, 59.999084%, 82.749939%)" d="M 334.25 156.285156 L 294.652344 156.285156 L 294.652344 118.617188 L 334.25 118.617188 L 334.25 156.285156 " fill-opacity="1" fill-rule="nonzero"/><path fill="rgb(71.759033%, 59.999084%, 82.749939%)" d="M 92.992188 206.347656 L 53.394531 206.347656 L 53.394531 168.679688 L 92.992188 168.679688 L 92.992188 206.347656 " fill-opacity="1" fill-rule="nonzero"/><path fill="rgb(71.759033%, 59.999084%, 82.749939%)" d="M 141.242188 206.230469 L 101.644531 206.230469 L 101.644531 168.566406 L 141.242188 168.566406 L 141.242188 206.230469 " fill-opacity="1" fill-rule="nonzero"/><path fill="rgb(71.759033%, 59.999084%, 82.749939%)" d="M 189.496094 206.117188 L 149.898438 206.117188 L 149.898438 168.453125 L 189.496094 168.453125 L 189.496094 206.117188 " fill-opacity="1" fill-rule="nonzero"/><path fill="rgb(71.759033%, 59.999084%, 82.749939%)" d="M 237.746094 206.003906 L 198.148438 206.003906 L 198.148438 168.339844 L 237.746094 168.339844 L 237.746094 206.003906 " fill-opacity="1" fill-rule="nonzero"/><path fill="rgb(71.759033%, 59.999084%, 82.749939%)" d="M 285.996094 205.886719 L 246.398438 205.886719 L 246.398438 168.222656 L 285.996094 168.222656 L 285.996094 205.886719 " fill-opacity="1" fill-rule="nonzero"/><path fill="rgb(71.759033%, 59.999084%, 82.749939%)" d="M 334.25 205.773438 L 294.652344 205.773438 L 294.652344 168.109375 L 334.25 168.109375 L 334.25 205.773438 " fill-opacity="1" fill-rule="nonzero"/><path fill="rgb(71.759033%, 59.999084%, 82.749939%)" d="M 92.992188 255.839844 L 53.394531 255.839844 L 53.394531 218.171875 L 92.992188 218.171875 L 92.992188 255.839844 " fill-opacity="1" fill-rule="nonzero"/><path fill="rgb(71.759033%, 59.999084%, 82.749939%)" d="M 141.242188 255.722656 L 101.644531 255.722656 L 101.644531 218.058594 L 141.242188 218.058594 L 141.242188 255.722656 " fill-opacity="1" fill-rule="nonzero"/><path fill="rgb(71.759033%, 59.999084%, 82.749939%)" d="M 189.496094 255.609375 L 149.898438 255.609375 L 149.898438 217.941406 L 189.496094 217.941406 L 189.496094 255.609375 " fill-opacity="1" fill-rule="nonzero"/><path fill="rgb(71.759033%, 59.999084%, 82.749939%)" d="M 237.746094 255.496094 L 198.148438 255.496094 L 198.148438 217.828125 L 237.746094 217.828125 L 237.746094 255.496094 " fill-opacity="1" fill-rule="nonzero"/><path fill="rgb(71.759033%, 59.999084%, 82.749939%)" d="M 285.996094 255.378906 L 246.398438 255.378906 L 246.398438 217.714844 L 285.996094 217.714844 L 285.996094 255.378906 " fill-opacity="1" fill-rule="nonzero"/><path fill="rgb(71.759033%, 59.999084%, 82.749939%)" d="M 334.25 255.265625 L 294.652344 255.265625 L 294.652344 217.605469 L 334.25 217.605469 L 334.25 255.265625 " fill-opacity="1" fill-rule="nonzero"/><path fill="rgb(71.759033%, 59.999084%, 82.749939%)" d="M 92.992188 305.328125 L 53.394531 305.328125 L 53.394531 267.664062 L 92.992188 267.664062 L 92.992188 305.328125 " fill-opacity="1" fill-rule="nonzero"/><path fill="rgb(71.759033%, 59.999084%, 82.749939%)" d="M 141.242188 305.214844 L 101.644531 305.214844 L 101.644531 267.554688 L 141.242188 267.554688 L 141.242188 305.214844 " fill-opacity="1" fill-rule="nonzero"/><path fill="rgb(71.759033%, 59.999084%, 82.749939%)" d="M 189.496094 305.101562 L 149.898438 305.101562 L 149.898438 267.433594 L 189.496094 267.433594 L 189.496094 305.101562 " fill-opacity="1" fill-rule="nonzero"/><path fill="rgb(71.759033%, 59.999084%, 82.749939%)" d="M 237.746094 304.984375 L 198.148438 304.984375 L 198.148438 267.320312 L 237.746094 267.320312 L 237.746094 304.984375 " fill-opacity="1" fill-rule="nonzero"/><path fill="rgb(71.759033%, 59.999084%, 82.749939%)" d="M 285.996094 304.871094 L 246.398438 304.871094 L 246.398438 267.210938 L 285.996094 267.210938 L 285.996094 304.871094 " fill-opacity="1" fill-rule="nonzero"/><path fill="rgb(71.759033%, 59.999084%, 82.749939%)" d="M 334.25 304.761719 L 294.652344 304.761719 L 294.652344 267.089844 L 334.25 267.089844 L 334.25 304.761719 " fill-opacity="1" fill-rule="nonzero"/></svg>