<?xml version="1.0" encoding="UTF-8"?><svg xmlns="http://www.w3.org/2000/svg" xmlns:xlink="http://www.w3.org/1999/xlink" contentScriptType="text/ecmascript" width="375" zoomAndPan="magnify" contentStyleType="text/css" viewBox="0 0 375 374.999991" height="374.999991" preserveAspectRatio="xMidYMid meet" version="1.0"><defs><clipPath id="clip-0"><path d="M 27 40 L 76 40 L 76 103.21875 L 27 103.21875 Z M 27 40 " clip-rule="nonzero"/></clipPath><clipPath id="clip-1"><path d="M 5 40 L 24 40 L 24 103.21875 L 5 103.21875 Z M 5 40 " clip-rule="nonzero"/></clipPath><clipPath id="clip-2"><path d="M 46 13 L 97.484375 13 L 97.484375 80 L 46 80 Z M 46 13 " clip-rule="nonzero"/></clipPath><clipPath id="clip-3"><path d="M 168 40 L 218 40 L 218 103.21875 L 168 103.21875 Z M 168 40 " clip-rule="nonzero"/></clipPath><clipPath id="clip-4"><path d="M 146 40 L 165 40 L 165 103.21875 L 146 103.21875 Z M 146 40 " clip-rule="nonzero"/></clipPath><clipPath id="clip-5"><path d="M 187 13 L 238.617188 13 L 238.617188 80 L 187 80 Z M 187 13 " clip-rule="nonzero"/></clipPath><clipPath id="clip-6"><path d="M 300 40 L 350 40 L 350 103.21875 L 300 103.21875 Z M 300 40 " clip-rule="nonzero"/></clipPath><clipPath id="clip-7"><path d="M 279 40 L 298 40 L 298 103.21875 L 279 103.21875 Z M 279 40 " clip-rule="nonzero"/></clipPath><clipPath id="clip-8"><path d="M 320 13 L 371.390625 13 L 371.390625 80 L 320 80 Z M 320 13 " clip-rule="nonzero"/></clipPath><clipPath id="clip-9"><path d="M 63 143 L 114.144531 143 L 114.144531 210 L 63 210 Z M 63 143 " clip-rule="nonzero"/></clipPath><clipPath id="clip-10"><path d="M 187 143 L 238.617188 143 L 238.617188 210 L 187 210 Z M 187 143 " clip-rule="nonzero"/></clipPath><clipPath id="clip-11"><path d="M 320 143 L 371.390625 143 L 371.390625 210 L 320 210 Z M 320 143 " clip-rule="nonzero"/></clipPath><clipPath id="clip-12"><path d="M 43 304 L 93 304 L 93 366.75 L 43 366.75 Z M 43 304 " clip-rule="nonzero"/></clipPath><clipPath id="clip-13"><path d="M 22 304 L 40 304 L 40 366.75 L 22 366.75 Z M 22 304 " clip-rule="nonzero"/></clipPath><clipPath id="clip-14"><path d="M 63 277 L 114.144531 277 L 114.144531 344 L 63 344 Z M 63 277 " clip-rule="nonzero"/></clipPath><clipPath id="clip-15"><path d="M 168 304 L 218 304 L 218 366.75 L 168 366.75 Z M 168 304 " clip-rule="nonzero"/></clipPath><clipPath id="clip-16"><path d="M 146 304 L 165 304 L 165 366.75 L 146 366.75 Z M 146 304 " clip-rule="nonzero"/></clipPath><clipPath id="clip-17"><path d="M 187 277 L 238.617188 277 L 238.617188 344 L 187 344 Z M 187 277 " clip-rule="nonzero"/></clipPath><clipPath id="clip-18"><path d="M 300 304 L 350 304 L 350 366.75 L 300 366.75 Z M 300 304 " clip-rule="nonzero"/></clipPath><clipPath id="clip-19"><path d="M 279 304 L 298 304 L 298 366.75 L 279 366.75 Z M 279 304 " clip-rule="nonzero"/></clipPath><clipPath id="clip-20"><path d="M 320 277 L 371.390625 277 L 371.390625 344 L 320 344 Z M 320 277 " clip-rule="nonzero"/></clipPath></defs><path stroke-linecap="round" transform="matrix(1.952302, 0, 0, 1.943877, 1.705852, 9.716558)" fill="none" stroke-linejoin="round" d="M 13.170155 7.169067 C 15.060952 9.110258 16.109394 11.029344 19.999034 11.99994 " stroke="rgb(93.728638%, 31.759644%, 16.468811%)" stroke-width="2" stroke-opacity="1" stroke-miterlimit="10"/><path stroke-linecap="round" transform="matrix(1.952302, 0, 0, 1.943877, 1.705852, 9.716558)" fill="none" stroke-linejoin="round" d="M 9.170469 11.17001 C 11.109287 13.060964 13.030096 14.10993 14.000505 18.000351 " stroke="rgb(93.728638%, 31.759644%, 16.468811%)" stroke-width="2" stroke-opacity="1" stroke-miterlimit="10"/><path stroke-linecap="round" transform="matrix(1.952302, 0, 0, 1.943877, 1.705852, 9.716558)" fill="none" stroke-linejoin="round" d="M 19.999034 8.999735 C 21.599709 8.81084 23.040316 9.039925 24.000721 10.000473 C 26.119614 12.120511 25.379302 16.619814 21.999877 19.999818 C 18.620453 23.379822 14.120556 24.119323 11.999662 21.999285 C 10.320954 20.319331 10.429 17.140279 12.249767 14.210406 " stroke="rgb(93.728638%, 31.759644%, 16.468811%)" stroke-width="2" stroke-opacity="1" stroke-miterlimit="10"/><path stroke-linecap="round" transform="matrix(1.952302, 0, 0, 1.943877, 1.705852, 9.716558)" fill="none" stroke-linejoin="round" d="M 19.999034 11.99994 C 21.05748 13.058954 20.691326 15.307601 19.000613 16.999613 " stroke="rgb(93.728638%, 31.759644%, 16.468811%)" stroke-width="2" stroke-opacity="1" stroke-miterlimit="10"/><path stroke-linecap="round" transform="matrix(1.952302, 0, 0, 1.943877, 1.705852, 9.716558)" fill="none" stroke-linejoin="round" d="M 29.000828 27.000967 L 21.999877 19.999818 " stroke="rgb(93.728638%, 31.759644%, 16.468811%)" stroke-width="2" stroke-opacity="1" stroke-miterlimit="10"/><path stroke-linecap="round" transform="matrix(1.380462, 1.374553, -1.38051, 1.374505, 16.515979, 1.331189)" fill="none" stroke-linejoin="round" d="M 12.535219 7.000399 C 12.536029 7.371882 12.512725 7.73906 12.468151 8.104775 C 12.42357 8.467654 12.356284 8.821977 12.266288 9.164908 C 12.179128 9.507845 12.069244 9.83372 11.939473 10.142537 C 11.811123 10.452775 11.665703 10.737455 11.500384 10.999406 C 11.336485 11.262778 11.158345 11.497762 10.964545 11.702937 C 10.772165 11.909534 10.568374 12.084912 10.353166 12.226238 C 10.139379 12.368984 9.918425 12.476268 9.690304 12.54809 C 9.462184 12.619912 9.232569 12.656284 9.000037 12.655786 C 8.768926 12.656708 8.537735 12.620765 8.3093 12.547964 C 8.082285 12.476584 7.860862 12.368351 7.647871 12.226107 C 7.432045 12.083857 7.228909 11.909024 7.035633 11.704436 C 6.84235 11.497013 6.664606 11.262683 6.500979 11.000026 C 6.334515 10.737363 6.187853 10.452057 6.05957 10.142687 C 5.931288 9.833316 5.821404 9.508388 5.732748 9.165074 C 5.644092 8.82176 5.576682 8.468566 5.531934 8.104077 C 5.487185 7.739589 5.463696 7.370893 5.464307 7.00083 C 5.463497 6.629347 5.48538 6.260748 5.531375 5.896454 C 5.577371 5.53216 5.644657 5.177837 5.733238 4.836321 C 5.821813 4.491969 5.931697 4.166095 6.060047 3.855857 C 6.188403 3.548454 6.335238 3.26236 6.500557 3.000409 C 6.664456 2.737036 6.842595 2.502052 7.036396 2.296877 C 7.228776 2.090281 7.432567 1.914902 7.647775 1.773577 C 7.861562 1.63083 8.082516 1.523546 8.310636 1.451724 C 8.537336 1.378481 8.768372 1.34353 8.999483 1.342608 C 9.232015 1.343107 9.463206 1.379049 9.688806 1.451844 C 9.917241 1.524646 10.138665 1.632878 10.35307 1.773707 C 10.567475 1.914536 10.772032 2.090791 10.963894 2.296793 C 11.158591 2.502802 11.336335 2.737131 11.499962 2.999788 C 11.66359 3.262445 11.810252 3.547751 11.94137 3.857128 C 12.069653 4.166498 12.178122 4.492841 12.266778 4.836155 C 12.355435 5.17947 12.422844 5.532664 12.467593 5.897152 C 12.513756 6.260225 12.535824 6.627501 12.535219 7.000399 Z M 12.535219 7.000399 " stroke="rgb(93.728638%, 31.759644%, 16.468811%)" stroke-width="2" stroke-opacity="1" stroke-miterlimit="10"/><path stroke-linecap="butt" transform="matrix(1.952302, 0, 0, 1.943877, 1.705852, 9.716558)" fill="none" stroke-linejoin="round" d="M 24.999141 32.00064 L 23.000299 32.00064 " stroke="rgb(25.099182%, 24.308777%, 24.308777%)" stroke-width="2" stroke-opacity="1" stroke-miterlimit="10"/><path stroke-linecap="butt" transform="matrix(1.952302, 0, 0, 1.943877, 1.705852, 9.716558)" fill="none" stroke-linejoin="round" d="M 20.999456 32.00064 L 19.000613 32.00064 " stroke="rgb(25.099182%, 24.308777%, 24.308777%)" stroke-width="2" stroke-opacity="1" stroke-miterlimit="10"/><path stroke-linecap="butt" transform="matrix(1.952302, 0, 0, 1.943877, 1.705852, 9.716558)" fill="none" stroke-linejoin="round" d="M 16.99977 32.00064 L 15.000927 32.00064 " stroke="rgb(25.099182%, 24.308777%, 24.308777%)" stroke-width="2" stroke-opacity="1" stroke-miterlimit="10"/><g clip-path="url(#clip-0)"><path stroke-linecap="round" transform="matrix(1.952302, 0, 0, 1.943877, 1.705852, 9.716558)" fill="none" stroke-linejoin="round" d="M 29.000828 16.999613 L 34.999357 16.999613 C 36.103822 16.999613 37.0002 17.895856 37.0002 18.99908 L 37.0002 45.000191 C 37.0002 46.103414 36.103822 46.999658 34.999357 46.999658 L 14.000505 46.999658 " stroke="rgb(25.099182%, 24.308777%, 24.308777%)" stroke-width="2" stroke-opacity="1" stroke-miterlimit="10"/></g><g clip-path="url(#clip-1)"><path stroke-linecap="round" transform="matrix(1.952302, 0, 0, 1.943877, 1.705852, 9.716558)" fill="none" stroke-linejoin="round" d="M 7.999976 40.000518 L 10.000819 40.000518 L 10.000819 46.999658 L 2.999868 40.000518 L 2.999868 18.99908 C 2.999868 17.895856 3.896246 16.999613 5.000712 16.999613 L 6.999554 16.999613 " stroke="rgb(25.099182%, 24.308777%, 24.308777%)" stroke-width="2" stroke-opacity="1" stroke-miterlimit="10"/></g><g clip-path="url(#clip-2)"><path stroke-linecap="round" transform="matrix(1.952302, 0, 0, 1.943877, 1.705852, 9.716558)" fill="none" stroke-linejoin="round" d="M 24.000721 5.999529 L 25.999563 4.000062 C 26.627828 3.371084 27.292108 2.999324 28.000406 2.999324 C 28.706704 2.999324 29.372985 3.371084 29.999249 4.000062 L 47.000415 21.000556 C 47.62868 21.627525 48.000837 22.292674 48.000837 23.000024 C 48.000837 23.707373 47.62868 24.372522 47.000415 24.999491 L 37.0002 35.000845 " stroke="rgb(25.099182%, 24.308777%, 24.308777%)" stroke-width="2" stroke-opacity="1" stroke-miterlimit="10"/></g><path stroke-linecap="round" transform="matrix(1.952302, 0, 0, 1.943877, 142.837642, 9.716558)" fill="none" stroke-linejoin="round" d="M 13.170679 7.169067 C 15.059475 9.110258 16.109918 11.029344 19.999558 11.99994 " stroke="rgb(93.728638%, 31.759644%, 16.468811%)" stroke-width="2" stroke-opacity="1" stroke-miterlimit="10"/><path stroke-linecap="round" transform="matrix(1.952302, 0, 0, 1.943877, 142.837642, 9.716558)" fill="none" stroke-linejoin="round" d="M 9.170993 11.17001 C 11.10981 13.060964 13.03062 14.10993 13.999028 18.000351 " stroke="rgb(93.728638%, 31.759644%, 16.468811%)" stroke-width="2" stroke-opacity="1" stroke-miterlimit="10"/><path stroke-linecap="round" transform="matrix(1.952302, 0, 0, 1.943877, 142.837642, 9.716558)" fill="none" stroke-linejoin="round" d="M 19.999558 8.999735 C 21.600232 8.81084 23.04084 9.039925 23.999243 10.000473 C 26.120137 12.120511 25.379825 16.619814 22.000401 19.999818 C 18.620976 23.379822 14.119079 24.119323 12.000186 21.999285 C 10.319477 20.319331 10.429524 17.140279 12.250291 14.210406 " stroke="rgb(93.728638%, 31.759644%, 16.468811%)" stroke-width="2" stroke-opacity="1" stroke-miterlimit="10"/><path stroke-linecap="round" transform="matrix(1.952302, 0, 0, 1.943877, 142.837642, 9.716558)" fill="none" stroke-linejoin="round" d="M 19.999558 11.99994 C 21.058004 13.058954 20.691849 15.307601 18.999136 16.999613 " stroke="rgb(93.728638%, 31.759644%, 16.468811%)" stroke-width="2" stroke-opacity="1" stroke-miterlimit="10"/><path stroke-linecap="round" transform="matrix(1.952302, 0, 0, 1.943877, 142.837642, 9.716558)" fill="none" stroke-linejoin="round" d="M 28.999351 27.000967 L 22.000401 19.999818 " stroke="rgb(93.728638%, 31.759644%, 16.468811%)" stroke-width="2" stroke-opacity="1" stroke-miterlimit="10"/><path stroke-linecap="round" transform="matrix(1.380462, 1.374553, -1.38051, 1.374505, 157.647767, 1.331189)" fill="none" stroke-linejoin="round" d="M 12.53559 7.000028 C 12.5364 7.371511 12.513097 7.738689 12.468522 8.104404 C 12.422526 8.468698 12.356656 8.821606 12.266659 9.164537 C 12.178084 9.508889 12.069615 9.833348 11.939844 10.142166 C 11.811495 10.452404 11.66466 10.738498 11.49934 11.000449 C 11.336856 11.262407 11.158717 11.497391 10.963501 11.703981 C 10.771121 11.910577 10.568745 12.084541 10.353537 12.225866 C 10.13975 12.368613 9.918796 12.475897 9.689261 12.549134 C 9.46114 12.620956 9.231525 12.657328 8.998993 12.656829 C 8.767883 12.657751 8.538106 12.620394 8.309671 12.547593 C 8.082656 12.476212 7.861233 12.36798 7.646828 12.227151 C 7.432416 12.083486 7.227865 11.910067 7.036004 11.704065 C 6.842721 11.496641 6.663562 11.263727 6.499935 11.00107 C 6.334887 10.736992 6.188224 10.451686 6.059942 10.142316 C 5.930244 9.83436 5.821775 9.508017 5.733119 9.164703 C 5.644463 8.821388 5.577053 8.468194 5.532305 8.103706 C 5.487556 7.739218 5.464067 7.370522 5.464678 7.000459 C 5.463868 6.628976 5.485751 6.260377 5.531747 5.896083 C 5.577742 5.531789 5.643613 5.178881 5.733609 4.83595 C 5.822184 4.491598 5.932068 4.165723 6.059003 3.8569 C 6.188774 3.548083 6.335609 3.261989 6.500929 3.000037 C 6.663413 2.73808 6.841552 2.503096 7.036768 2.296506 C 7.229147 2.089909 7.431524 1.915946 7.646732 1.77462 C 7.860519 1.631874 8.081472 1.52459 8.311008 1.451353 C 8.537707 1.37811 8.768744 1.343159 8.999854 1.342237 C 9.232386 1.342735 9.462162 1.380093 9.689177 1.451473 C 9.917612 1.524274 10.139036 1.632507 10.353441 1.773336 C 10.566431 1.91558 10.772403 2.090419 10.964265 2.296422 C 11.157547 2.503845 11.336706 2.73676 11.500334 2.999417 C 11.663961 3.262074 11.810623 3.54738 11.940327 3.858171 C 12.070024 4.166127 12.178494 4.49247 12.26715 4.835784 C 12.355806 5.179098 12.423215 5.532292 12.467964 5.896781 C 12.512712 6.261269 12.534781 6.628544 12.53559 7.000028 Z M 12.53559 7.000028 " stroke="rgb(93.728638%, 31.759644%, 16.468811%)" stroke-width="2" stroke-opacity="1" stroke-miterlimit="10"/><path stroke-linecap="butt" transform="matrix(1.952302, 0, 0, 1.943877, 142.837642, 9.716558)" fill="none" stroke-linejoin="round" d="M 24.999665 32.00064 L 23.000823 32.00064 " stroke="rgb(25.099182%, 24.308777%, 24.308777%)" stroke-width="2" stroke-opacity="1" stroke-miterlimit="10"/><path stroke-linecap="butt" transform="matrix(1.952302, 0, 0, 1.943877, 142.837642, 9.716558)" fill="none" stroke-linejoin="round" d="M 20.999979 32.00064 L 18.999136 32.00064 " stroke="rgb(25.099182%, 24.308777%, 24.308777%)" stroke-width="2" stroke-opacity="1" stroke-miterlimit="10"/><path stroke-linecap="butt" transform="matrix(1.952302, 0, 0, 1.943877, 142.837642, 9.716558)" fill="none" stroke-linejoin="round" d="M 17.000293 32.00064 L 14.99945 32.00064 " stroke="rgb(25.099182%, 24.308777%, 24.308777%)" stroke-width="2" stroke-opacity="1" stroke-miterlimit="10"/><g clip-path="url(#clip-3)"><path stroke-linecap="round" transform="matrix(1.952302, 0, 0, 1.943877, 142.837642, 9.716558)" fill="none" stroke-linejoin="round" d="M 28.999351 16.999613 L 34.99988 16.999613 C 36.104346 16.999613 37.000724 17.895856 37.000724 18.99908 L 37.000724 45.000191 C 37.000724 46.103414 36.104346 46.999658 34.99988 46.999658 L 13.999028 46.999658 " stroke="rgb(25.099182%, 24.308777%, 24.308777%)" stroke-width="2" stroke-opacity="1" stroke-miterlimit="10"/></g><g clip-path="url(#clip-4)"><path stroke-linecap="round" transform="matrix(1.952302, 0, 0, 1.943877, 142.837642, 9.716558)" fill="none" stroke-linejoin="round" d="M 8.0005 40.000518 L 9.999342 40.000518 L 9.999342 46.999658 L 3.000392 40.000518 L 3.000392 18.99908 C 3.000392 17.895856 3.89677 16.999613 4.999235 16.999613 L 7.000078 16.999613 " stroke="rgb(25.099182%, 24.308777%, 24.308777%)" stroke-width="2" stroke-opacity="1" stroke-miterlimit="10"/></g><g clip-path="url(#clip-5)"><path stroke-linecap="round" transform="matrix(1.952302, 0, 0, 1.943877, 142.837642, 9.716558)" fill="none" stroke-linejoin="round" d="M 23.999243 5.999529 L 26.000087 4.000062 C 26.628352 3.371084 27.292632 2.999324 28.00093 2.999324 C 28.707228 2.999324 29.371508 3.371084 29.999773 4.000062 L 47.000939 21.000556 C 47.627203 21.627525 47.99936 22.292674 47.99936 23.000024 C 47.99936 23.707373 47.627203 24.372522 47.000939 24.999491 L 37.000724 35.000845 " stroke="rgb(25.099182%, 24.308777%, 24.308777%)" stroke-width="2" stroke-opacity="1" stroke-miterlimit="10"/></g><path stroke-linecap="round" transform="matrix(1.952302, 0, 0, 1.943877, 275.609694, 9.716558)" fill="none" stroke-linejoin="round" d="M 13.169388 7.169067 C 15.060185 9.110258 16.110628 11.029344 20.000267 11.99994 " stroke="rgb(93.728638%, 31.759644%, 16.468811%)" stroke-width="2" stroke-opacity="1" stroke-miterlimit="10"/><path stroke-linecap="round" transform="matrix(1.952302, 0, 0, 1.943877, 275.609694, 9.716558)" fill="none" stroke-linejoin="round" d="M 9.169702 11.17001 C 11.11052 13.060964 13.029329 14.10993 13.999738 18.000351 " stroke="rgb(93.728638%, 31.759644%, 16.468811%)" stroke-width="2" stroke-opacity="1" stroke-miterlimit="10"/><path stroke-linecap="round" transform="matrix(1.952302, 0, 0, 1.943877, 275.609694, 9.716558)" fill="none" stroke-linejoin="round" d="M 20.000267 8.999735 C 21.600942 8.81084 23.039548 9.039925 23.999953 10.000473 C 26.120847 12.120511 25.380535 16.619814 21.99911 19.999818 C 18.619685 23.379822 14.119789 24.119323 12.000895 21.999285 C 10.320187 20.319331 10.430233 17.140279 12.249 14.210406 " stroke="rgb(93.728638%, 31.759644%, 16.468811%)" stroke-width="2" stroke-opacity="1" stroke-miterlimit="10"/><path stroke-linecap="round" transform="matrix(1.952302, 0, 0, 1.943877, 275.609694, 9.716558)" fill="none" stroke-linejoin="round" d="M 20.000267 11.99994 C 21.058713 13.058954 20.692559 15.307601 18.999846 16.999613 " stroke="rgb(93.728638%, 31.759644%, 16.468811%)" stroke-width="2" stroke-opacity="1" stroke-miterlimit="10"/><path stroke-linecap="round" transform="matrix(1.952302, 0, 0, 1.943877, 275.609694, 9.716558)" fill="none" stroke-linejoin="round" d="M 29.000061 27.000967 L 21.99911 19.999818 " stroke="rgb(93.728638%, 31.759644%, 16.468811%)" stroke-width="2" stroke-opacity="1" stroke-miterlimit="10"/><path stroke-linecap="round" transform="matrix(1.380462, 1.374553, -1.38051, 1.374505, 290.419819, 1.331189)" fill="none" stroke-linejoin="round" d="M 12.536092 6.999526 C 12.536902 7.371009 12.513598 7.738187 12.469024 8.103902 C 12.423028 8.468196 12.355743 8.822519 12.267161 9.164035 C 12.178586 9.508387 12.068702 9.834261 11.938931 10.143079 C 11.811996 10.451902 11.665162 10.737996 11.499842 10.999948 C 11.335943 11.26332 11.157804 11.498304 10.964003 11.703479 C 10.771623 11.910076 10.567832 12.085454 10.352624 12.22678 C 10.138837 12.369526 9.917883 12.47681 9.689763 12.548632 C 9.461642 12.620454 9.232027 12.656826 8.999495 12.656327 C 8.768384 12.65725 8.537193 12.621307 8.310173 12.547091 C 8.083158 12.475711 7.86032 12.368893 7.647329 12.226649 C 7.431503 12.084399 7.228367 11.909565 7.036506 11.703563 C 6.841808 11.497554 6.664064 11.263225 6.500437 11.000568 C 6.335388 10.73649 6.188726 10.451184 6.059029 10.143229 C 5.930746 9.833858 5.822277 9.507515 5.733621 9.164201 C 5.64355 8.822301 5.577555 8.467693 5.532806 8.103204 C 5.486643 7.740131 5.463154 7.371435 5.46518 6.999957 C 5.46437 6.628474 5.486253 6.259875 5.532248 5.895581 C 5.576829 5.532702 5.644115 5.178379 5.734111 4.835448 C 5.821271 4.492511 5.931155 4.166637 6.059505 3.856398 C 6.189276 3.547581 6.334696 3.262902 6.500016 3.00095 C 6.663914 2.737578 6.842054 2.502594 7.035855 2.297419 C 7.228234 2.090823 7.432025 1.915444 7.647233 1.774118 C 7.861021 1.631372 8.081974 1.524088 8.310095 1.452266 C 8.536794 1.379023 8.767831 1.344072 8.998941 1.34315 C 9.231473 1.343648 9.462664 1.379591 9.689678 1.450971 C 9.918114 1.523773 10.139538 1.632005 10.352528 1.774249 C 10.566933 1.915078 10.77149 2.091333 10.964767 2.29592 C 11.158049 2.503344 11.335793 2.737673 11.499421 3.00033 C 11.664463 3.261572 11.80971 3.548293 11.940829 3.857669 C 12.069111 4.16704 12.178995 4.491968 12.267651 4.835282 C 12.356308 5.178597 12.423717 5.531791 12.468466 5.896279 C 12.513214 6.260767 12.535283 6.628043 12.536092 6.999526 Z M 12.536092 6.999526 " stroke="rgb(93.728638%, 31.759644%, 16.468811%)" stroke-width="2" stroke-opacity="1" stroke-miterlimit="10"/><path stroke-linecap="butt" transform="matrix(1.952302, 0, 0, 1.943877, 275.609694, 9.716558)" fill="none" stroke-linejoin="round" d="M 25.000375 32.00064 L 22.999531 32.00064 " stroke="rgb(25.099182%, 24.308777%, 24.308777%)" stroke-width="2" stroke-opacity="1" stroke-miterlimit="10"/><path stroke-linecap="butt" transform="matrix(1.952302, 0, 0, 1.943877, 275.609694, 9.716558)" fill="none" stroke-linejoin="round" d="M 21.000689 32.00064 L 18.999846 32.00064 " stroke="rgb(25.099182%, 24.308777%, 24.308777%)" stroke-width="2" stroke-opacity="1" stroke-miterlimit="10"/><path stroke-linecap="butt" transform="matrix(1.952302, 0, 0, 1.943877, 275.609694, 9.716558)" fill="none" stroke-linejoin="round" d="M 16.999002 32.00064 L 15.00016 32.00064 " stroke="rgb(25.099182%, 24.308777%, 24.308777%)" stroke-width="2" stroke-opacity="1" stroke-miterlimit="10"/><g clip-path="url(#clip-6)"><path stroke-linecap="round" transform="matrix(1.952302, 0, 0, 1.943877, 275.609694, 9.716558)" fill="none" stroke-linejoin="round" d="M 29.000061 16.999613 L 35.00059 16.999613 C 36.103055 16.999613 36.999433 17.895856 36.999433 18.99908 L 36.999433 45.000191 C 36.999433 46.103414 36.103055 46.999658 35.00059 46.999658 L 13.999738 46.999658 " stroke="rgb(25.099182%, 24.308777%, 24.308777%)" stroke-width="2" stroke-opacity="1" stroke-miterlimit="10"/></g><g clip-path="url(#clip-7)"><path stroke-linecap="round" transform="matrix(1.952302, 0, 0, 1.943877, 275.609694, 9.716558)" fill="none" stroke-linejoin="round" d="M 7.999209 40.000518 L 10.000052 40.000518 L 10.000052 46.999658 L 2.999101 40.000518 L 2.999101 18.99908 C 2.999101 17.895856 3.895479 16.999613 4.999944 16.999613 L 7.000788 16.999613 " stroke="rgb(25.099182%, 24.308777%, 24.308777%)" stroke-width="2" stroke-opacity="1" stroke-miterlimit="10"/></g><g clip-path="url(#clip-8)"><path stroke-linecap="round" transform="matrix(1.952302, 0, 0, 1.943877, 275.609694, 9.716558)" fill="none" stroke-linejoin="round" d="M 23.999953 5.999529 L 26.000797 4.000062 C 26.62706 3.371084 27.293341 2.999324 27.999639 2.999324 C 28.707938 2.999324 29.372218 3.371084 30.000482 4.000062 L 46.999648 21.000556 C 47.627913 21.627525 48.000069 22.292674 48.000069 23.000024 C 48.000069 23.707373 47.627913 24.372522 46.999648 24.999491 L 36.999433 35.000845 " stroke="rgb(25.099182%, 24.308777%, 24.308777%)" stroke-width="2" stroke-opacity="1" stroke-miterlimit="10"/></g><path stroke-linecap="round" transform="matrix(1.952302, 0, 0, 1.943877, 18.363828, 139.648774)" fill="none" stroke-linejoin="round" d="M 13.169271 7.169775 C 15.060068 9.110967 16.110511 11.030053 20.00015 12.000649 " stroke="rgb(93.728638%, 31.759644%, 16.468811%)" stroke-width="2" stroke-opacity="1" stroke-miterlimit="10"/><path stroke-linecap="round" transform="matrix(1.952302, 0, 0, 1.943877, 18.363828, 139.648774)" fill="none" stroke-linejoin="round" d="M 9.169585 11.170719 C 11.110403 13.059663 13.029212 14.110639 13.999621 17.99905 " stroke="rgb(93.728638%, 31.759644%, 16.468811%)" stroke-width="2" stroke-opacity="1" stroke-miterlimit="10"/><path stroke-linecap="round" transform="matrix(1.952302, 0, 0, 1.943877, 18.363828, 139.648774)" fill="none" stroke-linejoin="round" d="M 20.00015 9.000443 C 21.600825 8.809539 23.039431 9.040634 23.999836 9.999172 C 26.12073 12.11921 25.380418 16.620523 22.000994 20.000527 C 18.619568 23.380531 14.119671 24.120032 12.000778 21.999994 C 10.32007 20.32004 10.430116 17.140987 12.250884 14.209105 " stroke="rgb(93.728638%, 31.759644%, 16.468811%)" stroke-width="2" stroke-opacity="1" stroke-miterlimit="10"/><path stroke-linecap="round" transform="matrix(1.952302, 0, 0, 1.943877, 18.363828, 139.648774)" fill="none" stroke-linejoin="round" d="M 20.00015 12.000649 C 21.058596 13.057653 20.692442 15.30831 18.999728 17.000321 " stroke="rgb(93.728638%, 31.759644%, 16.468811%)" stroke-width="2" stroke-opacity="1" stroke-miterlimit="10"/><path stroke-linecap="round" transform="matrix(1.952302, 0, 0, 1.943877, 18.363828, 139.648774)" fill="none" stroke-linejoin="round" d="M 28.999944 26.999667 L 22.000994 20.000527 " stroke="rgb(93.728638%, 31.759644%, 16.468811%)" stroke-width="2" stroke-opacity="1" stroke-miterlimit="10"/><path stroke-linecap="round" transform="matrix(1.380462, 1.374553, -1.38051, 1.374505, 33.173956, 131.26341)" fill="none" stroke-linejoin="round" d="M 12.536508 7.000109 C 12.535897 7.370171 12.514014 7.73877 12.468018 8.103064 C 12.422023 8.467358 12.354737 8.821681 12.267577 9.164618 C 12.177581 9.507549 12.069118 9.834844 11.940762 10.142247 C 11.810991 10.451064 11.664156 10.737158 11.500257 11.000531 C 11.336359 11.263903 11.156798 11.497466 10.964418 11.704062 C 10.772039 11.910658 10.566827 12.084616 10.35304 12.227362 C 10.137831 12.368688 9.916878 12.475972 9.690178 12.549215 C 9.462058 12.621037 9.232442 12.657409 8.999911 12.65691 C 8.767379 12.656412 8.537609 12.62189 8.310588 12.547674 C 8.082153 12.474873 7.86215 12.368061 7.646324 12.225811 C 7.431919 12.084982 7.228783 11.910148 7.0355 11.702725 C 6.842224 11.498137 6.663059 11.262387 6.499431 10.99973 C 6.335804 10.737073 6.189142 10.451767 6.060859 10.142397 C 5.931162 9.834441 5.822692 9.508098 5.734036 9.164784 C 5.64538 8.82147 5.57797 8.468276 5.531801 8.102366 C 5.485638 7.739293 5.463569 7.372017 5.464175 6.999119 C 5.464786 6.629057 5.486668 6.260458 5.532664 5.896164 C 5.577245 5.533285 5.64453 5.178962 5.733106 4.83461 C 5.823102 4.491679 5.93015 4.165799 6.05992 3.856981 C 6.189691 3.548164 6.335111 3.263485 6.49901 3.000112 C 6.66433 2.738161 6.842469 2.503177 7.034849 2.296581 C 7.227229 2.089985 7.432441 1.916027 7.646228 1.773281 C 7.861436 1.631955 8.08239 1.524671 8.309089 1.451428 C 8.53721 1.379606 8.766825 1.343234 8.999357 1.343733 C 9.233303 1.342816 9.461658 1.378753 9.690094 1.451554 C 9.91853 1.524355 10.138532 1.631167 10.354358 1.773417 C 10.567349 1.915661 10.7719 2.08908 10.965182 2.296503 C 11.157043 2.502506 11.336209 2.738256 11.501251 2.999498 C 11.664878 3.262155 11.811541 3.547461 11.939823 3.856831 C 12.068106 4.166202 12.17799 4.49113 12.266646 4.834444 C 12.355302 5.177759 12.422712 5.530953 12.468881 5.896862 C 12.51363 6.26135 12.535698 6.628625 12.536508 7.000109 Z M 12.536508 7.000109 " stroke="rgb(93.728638%, 31.759644%, 16.468811%)" stroke-width="2" stroke-opacity="1" stroke-miterlimit="10"/><path stroke-linecap="butt" transform="matrix(1.952302, 0, 0, 1.943877, 18.363828, 139.648774)" fill="none" stroke-linejoin="round" d="M 25.000258 31.999339 L 22.999414 31.999339 " stroke="rgb(25.099182%, 24.308777%, 24.308777%)" stroke-width="2" stroke-opacity="1" stroke-miterlimit="10"/><path stroke-linecap="butt" transform="matrix(1.952302, 0, 0, 1.943877, 18.363828, 139.648774)" fill="none" stroke-linejoin="round" d="M 21.000572 31.999339 L 18.999728 31.999339 " stroke="rgb(25.099182%, 24.308777%, 24.308777%)" stroke-width="2" stroke-opacity="1" stroke-miterlimit="10"/><path stroke-linecap="butt" transform="matrix(1.952302, 0, 0, 1.943877, 18.363828, 139.648774)" fill="none" stroke-linejoin="round" d="M 17.000886 31.999339 L 15.000043 31.999339 " stroke="rgb(25.099182%, 24.308777%, 24.308777%)" stroke-width="2" stroke-opacity="1" stroke-miterlimit="10"/><path stroke-linecap="round" transform="matrix(1.952302, 0, 0, 1.943877, 18.363828, 139.648774)" fill="none" stroke-linejoin="round" d="M 28.999944 17.000321 L 35.000473 17.000321 C 36.104938 17.000321 36.999315 17.896565 36.999315 18.999789 L 36.999315 45.000899 C 36.999315 46.104123 36.104938 47.000367 35.000473 47.000367 L 13.999621 47.000367 " stroke="rgb(25.099182%, 24.308777%, 24.308777%)" stroke-width="2" stroke-opacity="1" stroke-miterlimit="10"/><path stroke-linecap="round" transform="matrix(1.952302, 0, 0, 1.943877, 18.363828, 139.648774)" fill="none" stroke-linejoin="round" d="M 7.999092 39.999217 L 9.999935 39.999217 L 9.999935 47.000367 L 3.000985 39.999217 L 3.000985 18.999789 C 3.000985 17.896565 3.895362 17.000321 4.999827 17.000321 L 7.000671 17.000321 " stroke="rgb(25.099182%, 24.308777%, 24.308777%)" stroke-width="2" stroke-opacity="1" stroke-miterlimit="10"/><g clip-path="url(#clip-9)"><path stroke-linecap="round" transform="matrix(1.952302, 0, 0, 1.943877, 18.363828, 139.648774)" fill="none" stroke-linejoin="round" d="M 23.999836 6.000238 L 26.000679 4.000771 C 26.628944 3.371793 27.293224 3.000032 27.999522 3.000032 C 28.707821 3.000032 29.372101 3.371793 30.000365 4.000771 L 46.999531 20.999256 C 47.627796 21.628234 47.999952 22.293383 47.999952 23.000732 C 47.999952 23.706072 47.627796 24.371221 46.999531 25.000199 L 36.999315 34.999545 " stroke="rgb(25.099182%, 24.308777%, 24.308777%)" stroke-width="2" stroke-opacity="1" stroke-miterlimit="10"/></g><path stroke-linecap="round" transform="matrix(1.952302, 0, 0, 1.943877, 142.837642, 139.648774)" fill="none" stroke-linejoin="round" d="M 13.170679 7.169775 C 15.059475 9.110967 16.109918 11.030053 19.999558 12.000649 " stroke="rgb(93.728638%, 31.759644%, 16.468811%)" stroke-width="2" stroke-opacity="1" stroke-miterlimit="10"/><path stroke-linecap="round" transform="matrix(1.952302, 0, 0, 1.943877, 142.837642, 139.648774)" fill="none" stroke-linejoin="round" d="M 9.170993 11.170719 C 11.10981 13.059663 13.03062 14.110639 13.999028 17.99905 " stroke="rgb(93.728638%, 31.759644%, 16.468811%)" stroke-width="2" stroke-opacity="1" stroke-miterlimit="10"/><path stroke-linecap="round" transform="matrix(1.952302, 0, 0, 1.943877, 142.837642, 139.648774)" fill="none" stroke-linejoin="round" d="M 19.999558 9.000443 C 21.600232 8.809539 23.04084 9.040634 23.999243 9.999172 C 26.120137 12.11921 25.379825 16.620523 22.000401 20.000527 C 18.620976 23.380531 14.119079 24.120032 12.000186 21.999994 C 10.319477 20.32004 10.429524 17.140987 12.250291 14.209105 " stroke="rgb(93.728638%, 31.759644%, 16.468811%)" stroke-width="2" stroke-opacity="1" stroke-miterlimit="10"/><path stroke-linecap="round" transform="matrix(1.952302, 0, 0, 1.943877, 142.837642, 139.648774)" fill="none" stroke-linejoin="round" d="M 19.999558 12.000649 C 21.058004 13.057653 20.691849 15.30831 18.999136 17.000321 " stroke="rgb(93.728638%, 31.759644%, 16.468811%)" stroke-width="2" stroke-opacity="1" stroke-miterlimit="10"/><path stroke-linecap="round" transform="matrix(1.952302, 0, 0, 1.943877, 142.837642, 139.648774)" fill="none" stroke-linejoin="round" d="M 28.999351 26.999667 L 22.000401 20.000527 " stroke="rgb(93.728638%, 31.759644%, 16.468811%)" stroke-width="2" stroke-opacity="1" stroke-miterlimit="10"/><path stroke-linecap="round" transform="matrix(1.380462, 1.374553, -1.38051, 1.374505, 157.647767, 131.26341)" fill="none" stroke-linejoin="round" d="M 12.53609 7.000527 C 12.535478 7.37059 12.513596 7.739189 12.4676 8.103482 C 12.421605 8.467776 12.355734 8.820684 12.267159 9.165036 C 12.177162 9.507967 12.070115 9.833848 11.940344 10.142665 C 11.810573 10.451482 11.663738 10.737577 11.499839 11.000949 C 11.337355 11.262906 11.157795 11.496469 10.964 11.70448 C 10.77162 11.911077 10.567823 12.08362 10.354036 12.226366 C 10.138828 12.367691 9.917874 12.474975 9.68976 12.549633 C 9.46164 12.621455 9.232024 12.657827 8.999493 12.657329 C 8.766961 12.65683 8.538606 12.620893 8.31017 12.548092 C 8.081735 12.475291 7.861732 12.368479 7.645906 12.226229 C 7.432916 12.083985 7.228364 11.910567 7.035082 11.703143 C 6.843221 11.497141 6.662641 11.262805 6.499013 11.000148 C 6.335386 10.737492 6.188723 10.452185 6.060441 10.142815 C 5.930744 9.834859 5.822274 9.508517 5.733618 9.165202 C 5.644962 8.821888 5.577552 8.468694 5.531383 8.102784 C 5.486635 7.738296 5.464566 7.371021 5.463756 6.999537 C 5.464368 6.629475 5.48625 6.260876 5.532246 5.896582 C 5.578242 5.532289 5.644112 5.17938 5.732688 4.835028 C 5.822684 4.492097 5.931146 4.164802 6.059502 3.8574 C 6.189273 3.548582 6.336108 3.262488 6.500007 2.999116 C 6.663912 2.738579 6.842051 2.503595 7.035846 2.295584 C 7.228226 2.088988 7.432023 1.916445 7.64581 1.773699 C 7.861018 1.632373 8.081972 1.525089 8.310086 1.450431 C 8.538206 1.378609 8.767822 1.342237 9.000354 1.342736 C 9.232885 1.343235 9.46124 1.379171 9.689676 1.451972 C 9.918112 1.524774 10.138114 1.631586 10.35394 1.773835 C 10.566931 1.916079 10.771482 2.089498 10.964764 2.296921 C 11.156625 2.502924 11.337205 2.737259 11.500833 2.999916 C 11.66446 3.262573 11.811123 3.547879 11.939405 3.85725 C 12.069102 4.165205 12.177572 4.491548 12.266228 4.834862 C 12.354884 5.178177 12.422294 5.531371 12.468463 5.89728 C 12.513211 6.261768 12.53528 6.629044 12.53609 7.000527 Z M 12.53609 7.000527 " stroke="rgb(93.728638%, 31.759644%, 16.468811%)" stroke-width="2" stroke-opacity="1" stroke-miterlimit="10"/><path stroke-linecap="butt" transform="matrix(1.952302, 0, 0, 1.943877, 142.837642, 139.648774)" fill="none" stroke-linejoin="round" d="M 24.999665 31.999339 L 23.000823 31.999339 " stroke="rgb(25.099182%, 24.308777%, 24.308777%)" stroke-width="2" stroke-opacity="1" stroke-miterlimit="10"/><path stroke-linecap="butt" transform="matrix(1.952302, 0, 0, 1.943877, 142.837642, 139.648774)" fill="none" stroke-linejoin="round" d="M 20.999979 31.999339 L 18.999136 31.999339 " stroke="rgb(25.099182%, 24.308777%, 24.308777%)" stroke-width="2" stroke-opacity="1" stroke-miterlimit="10"/><path stroke-linecap="butt" transform="matrix(1.952302, 0, 0, 1.943877, 142.837642, 139.648774)" fill="none" stroke-linejoin="round" d="M 17.000293 31.999339 L 14.99945 31.999339 " stroke="rgb(25.099182%, 24.308777%, 24.308777%)" stroke-width="2" stroke-opacity="1" stroke-miterlimit="10"/><path stroke-linecap="round" transform="matrix(1.952302, 0, 0, 1.943877, 142.837642, 139.648774)" fill="none" stroke-linejoin="round" d="M 28.999351 17.000321 L 34.99988 17.000321 C 36.104346 17.000321 37.000724 17.896565 37.000724 18.999789 L 37.000724 45.000899 C 37.000724 46.104123 36.104346 47.000367 34.99988 47.000367 L 13.999028 47.000367 " stroke="rgb(25.099182%, 24.308777%, 24.308777%)" stroke-width="2" stroke-opacity="1" stroke-miterlimit="10"/><path stroke-linecap="round" transform="matrix(1.952302, 0, 0, 1.943877, 142.837642, 139.648774)" fill="none" stroke-linejoin="round" d="M 8.0005 39.999217 L 9.999342 39.999217 L 9.999342 47.000367 L 3.000392 39.999217 L 3.000392 18.999789 C 3.000392 17.896565 3.89677 17.000321 4.999235 17.000321 L 7.000078 17.000321 " stroke="rgb(25.099182%, 24.308777%, 24.308777%)" stroke-width="2" stroke-opacity="1" stroke-miterlimit="10"/><g clip-path="url(#clip-10)"><path stroke-linecap="round" transform="matrix(1.952302, 0, 0, 1.943877, 142.837642, 139.648774)" fill="none" stroke-linejoin="round" d="M 23.999243 6.000238 L 26.000087 4.000771 C 26.628352 3.371793 27.292632 3.000032 28.00093 3.000032 C 28.707228 3.000032 29.371508 3.371793 29.999773 4.000771 L 47.000939 20.999256 C 47.627203 21.628234 47.99936 22.293383 47.99936 23.000732 C 47.99936 23.706072 47.627203 24.371221 47.000939 25.000199 L 37.000724 34.999545 " stroke="rgb(25.099182%, 24.308777%, 24.308777%)" stroke-width="2" stroke-opacity="1" stroke-miterlimit="10"/></g><path stroke-linecap="round" transform="matrix(1.952302, 0, 0, 1.943877, 275.609694, 139.648774)" fill="none" stroke-linejoin="round" d="M 13.169388 7.169775 C 15.060185 9.110967 16.110628 11.030053 20.000267 12.000649 " stroke="rgb(93.728638%, 31.759644%, 16.468811%)" stroke-width="2" stroke-opacity="1" stroke-miterlimit="10"/><path stroke-linecap="round" transform="matrix(1.952302, 0, 0, 1.943877, 275.609694, 139.648774)" fill="none" stroke-linejoin="round" d="M 9.169702 11.170719 C 11.11052 13.059663 13.029329 14.110639 13.999738 17.99905 " stroke="rgb(93.728638%, 31.759644%, 16.468811%)" stroke-width="2" stroke-opacity="1" stroke-miterlimit="10"/><path stroke-linecap="round" transform="matrix(1.952302, 0, 0, 1.943877, 275.609694, 139.648774)" fill="none" stroke-linejoin="round" d="M 20.000267 9.000443 C 21.600942 8.809539 23.039548 9.040634 23.999953 9.999172 C 26.120847 12.11921 25.380535 16.620523 21.99911 20.000527 C 18.619685 23.380531 14.119789 24.120032 12.000895 21.999994 C 10.320187 20.32004 10.430233 17.140987 12.249 14.209105 " stroke="rgb(93.728638%, 31.759644%, 16.468811%)" stroke-width="2" stroke-opacity="1" stroke-miterlimit="10"/><path stroke-linecap="round" transform="matrix(1.952302, 0, 0, 1.943877, 275.609694, 139.648774)" fill="none" stroke-linejoin="round" d="M 20.000267 12.000649 C 21.058713 13.057653 20.692559 15.30831 18.999846 17.000321 " stroke="rgb(93.728638%, 31.759644%, 16.468811%)" stroke-width="2" stroke-opacity="1" stroke-miterlimit="10"/><path stroke-linecap="round" transform="matrix(1.952302, 0, 0, 1.943877, 275.609694, 139.648774)" fill="none" stroke-linejoin="round" d="M 29.000061 26.999667 L 21.99911 20.000527 " stroke="rgb(93.728638%, 31.759644%, 16.468811%)" stroke-width="2" stroke-opacity="1" stroke-miterlimit="10"/><path stroke-linecap="round" transform="matrix(1.380462, 1.374553, -1.38051, 1.374505, 290.419819, 131.26341)" fill="none" stroke-linejoin="round" d="M 12.536591 7.000025 C 12.53598 7.370088 12.514098 7.738687 12.468102 8.10298 C 12.422106 8.467274 12.354821 8.821597 12.26766 9.164534 C 12.177664 9.507466 12.069202 9.834761 11.939431 10.143578 C 11.811075 10.45098 11.66424 10.737075 11.500341 11.000447 C 11.336442 11.263819 11.156882 11.497382 10.964502 11.703979 C 10.772122 11.910575 10.56691 12.084533 10.353123 12.227279 C 10.137915 12.368604 9.916961 12.475888 9.690262 12.549131 C 9.462142 12.620953 9.232526 12.657325 8.999994 12.656827 C 8.767463 12.656328 8.537693 12.621806 8.310672 12.54759 C 8.082236 12.474789 7.860819 12.369392 7.646408 12.225727 C 7.432002 12.084898 7.228866 11.910065 7.035584 11.702641 C 6.842308 11.498054 6.663142 11.262303 6.499515 10.999646 C 6.335888 10.73699 6.189225 10.451684 6.059528 10.143728 C 5.931245 9.834357 5.822776 9.508015 5.73412 9.1647 C 5.644049 8.822801 5.578054 8.468192 5.531885 8.102283 C 5.485722 7.739209 5.463653 7.371934 5.464258 6.999036 C 5.46487 6.628973 5.486752 6.260374 5.532748 5.89608 C 5.577329 5.533202 5.644614 5.178879 5.733189 4.834526 C 5.821771 4.49301 5.930233 4.165715 6.060004 3.856898 C 6.189775 3.548081 6.335195 3.263401 6.499094 3.000029 C 6.664414 2.738078 6.842553 2.503093 7.034933 2.296497 C 7.227313 2.089901 7.432525 1.915943 7.646312 1.773197 C 7.86152 1.631872 8.082474 1.524587 8.309173 1.451344 C 8.537293 1.379522 8.766909 1.34315 8.99944 1.343649 C 9.231972 1.344148 9.461742 1.378669 9.690178 1.451471 C 9.918613 1.524272 10.138616 1.631084 10.353027 1.774748 C 10.567432 1.915577 10.770569 2.090411 10.965266 2.296419 C 11.157127 2.502422 11.336292 2.738172 11.49992 3.000829 C 11.664962 3.262071 11.81021 3.548792 11.939907 3.856748 C 12.068189 4.166118 12.178074 4.491046 12.26673 4.834361 C 12.355386 5.177675 12.422796 5.530869 12.468965 5.896778 C 12.513713 6.261266 12.535782 6.628542 12.536591 7.000025 Z M 12.536591 7.000025 " stroke="rgb(93.728638%, 31.759644%, 16.468811%)" stroke-width="2" stroke-opacity="1" stroke-miterlimit="10"/><path stroke-linecap="butt" transform="matrix(1.952302, 0, 0, 1.943877, 275.609694, 139.648774)" fill="none" stroke-linejoin="round" d="M 25.000375 31.999339 L 22.999531 31.999339 " stroke="rgb(25.099182%, 24.308777%, 24.308777%)" stroke-width="2" stroke-opacity="1" stroke-miterlimit="10"/><path stroke-linecap="butt" transform="matrix(1.952302, 0, 0, 1.943877, 275.609694, 139.648774)" fill="none" stroke-linejoin="round" d="M 21.000689 31.999339 L 18.999846 31.999339 " stroke="rgb(25.099182%, 24.308777%, 24.308777%)" stroke-width="2" stroke-opacity="1" stroke-miterlimit="10"/><path stroke-linecap="butt" transform="matrix(1.952302, 0, 0, 1.943877, 275.609694, 139.648774)" fill="none" stroke-linejoin="round" d="M 16.999002 31.999339 L 15.00016 31.999339 " stroke="rgb(25.099182%, 24.308777%, 24.308777%)" stroke-width="2" stroke-opacity="1" stroke-miterlimit="10"/><path stroke-linecap="round" transform="matrix(1.952302, 0, 0, 1.943877, 275.609694, 139.648774)" fill="none" stroke-linejoin="round" d="M 29.000061 17.000321 L 35.00059 17.000321 C 36.103055 17.000321 36.999433 17.896565 36.999433 18.999789 L 36.999433 45.000899 C 36.999433 46.104123 36.103055 47.000367 35.00059 47.000367 L 13.999738 47.000367 " stroke="rgb(25.099182%, 24.308777%, 24.308777%)" stroke-width="2" stroke-opacity="1" stroke-miterlimit="10"/><path stroke-linecap="round" transform="matrix(1.952302, 0, 0, 1.943877, 275.609694, 139.648774)" fill="none" stroke-linejoin="round" d="M 7.999209 39.999217 L 10.000052 39.999217 L 10.000052 47.000367 L 2.999101 39.999217 L 2.999101 18.999789 C 2.999101 17.896565 3.895479 17.000321 4.999944 17.000321 L 7.000788 17.000321 " stroke="rgb(25.099182%, 24.308777%, 24.308777%)" stroke-width="2" stroke-opacity="1" stroke-miterlimit="10"/><g clip-path="url(#clip-11)"><path stroke-linecap="round" transform="matrix(1.952302, 0, 0, 1.943877, 275.609694, 139.648774)" fill="none" stroke-linejoin="round" d="M 23.999953 6.000238 L 26.000797 4.000771 C 26.62706 3.371793 27.293341 3.000032 27.999639 3.000032 C 28.707938 3.000032 29.372218 3.371793 30.000482 4.000771 L 46.999648 20.999256 C 47.627913 21.628234 48.000069 22.293383 48.000069 23.000732 C 48.000069 23.706072 47.627913 24.371221 46.999648 25.000199 L 36.999433 34.999545 " stroke="rgb(25.099182%, 24.308777%, 24.308777%)" stroke-width="2" stroke-opacity="1" stroke-miterlimit="10"/></g><path stroke-linecap="round" transform="matrix(1.952302, 0, 0, 1.943877, 18.363828, 273.2476)" fill="none" stroke-linejoin="round" d="M 13.169271 7.169174 C 15.060068 9.110365 16.110511 11.029452 20.00015 12.000047 " stroke="rgb(93.728638%, 31.759644%, 16.468811%)" stroke-width="2" stroke-opacity="1" stroke-miterlimit="10"/><path stroke-linecap="round" transform="matrix(1.952302, 0, 0, 1.943877, 18.363828, 273.2476)" fill="none" stroke-linejoin="round" d="M 9.169585 11.170118 C 11.110403 13.059061 13.029212 14.110038 13.999621 18.000458 " stroke="rgb(93.728638%, 31.759644%, 16.468811%)" stroke-width="2" stroke-opacity="1" stroke-miterlimit="10"/><path stroke-linecap="round" transform="matrix(1.952302, 0, 0, 1.943877, 18.363828, 273.2476)" fill="none" stroke-linejoin="round" d="M 20.00015 8.999842 C 21.600825 8.810947 23.039431 9.040032 23.999836 10.00058 C 26.12073 12.120618 25.380418 16.619922 22.000994 19.999925 C 18.619568 23.379929 14.119671 24.11943 12.000778 21.999392 C 10.32007 20.319438 10.430116 17.140386 12.250884 14.210513 " stroke="rgb(93.728638%, 31.759644%, 16.468811%)" stroke-width="2" stroke-opacity="1" stroke-miterlimit="10"/><path stroke-linecap="round" transform="matrix(1.952302, 0, 0, 1.943877, 18.363828, 273.2476)" fill="none" stroke-linejoin="round" d="M 20.00015 12.000047 C 21.058596 13.057052 20.692442 15.307708 18.999728 16.99972 " stroke="rgb(93.728638%, 31.759644%, 16.468811%)" stroke-width="2" stroke-opacity="1" stroke-miterlimit="10"/><path stroke-linecap="round" transform="matrix(1.952302, 0, 0, 1.943877, 18.363828, 273.2476)" fill="none" stroke-linejoin="round" d="M 28.999944 26.999065 L 22.000994 19.999925 " stroke="rgb(93.728638%, 31.759644%, 16.468811%)" stroke-width="2" stroke-opacity="1" stroke-miterlimit="10"/><path stroke-linecap="round" transform="matrix(1.380462, 1.374553, -1.38051, 1.374505, 33.173956, 264.862219)" fill="none" stroke-linejoin="round" d="M 12.536089 6.99969 C 12.536898 7.371173 12.513595 7.738351 12.46902 8.104066 C 12.423024 8.468359 12.355739 8.822682 12.267157 9.164199 C 12.178582 9.508551 12.068699 9.834425 11.940343 10.141827 C 11.811993 10.452065 11.665158 10.73816 11.499838 11.000111 C 11.335939 11.263483 11.156379 11.497047 10.963999 11.703643 C 10.771619 11.910239 10.566407 12.084197 10.35262 12.226943 C 10.138833 12.369689 9.916458 12.475553 9.689759 12.548796 C 9.461639 12.620618 9.232023 12.65699 8.999491 12.656491 C 8.768381 12.657413 8.53719 12.621471 8.310169 12.547255 C 8.083154 12.475874 7.861731 12.367641 7.647326 12.226813 C 7.4315 12.084563 7.228363 11.909729 7.036502 11.703727 C 6.841805 11.497718 6.66406 11.263388 6.500433 11.000732 C 6.335385 10.736654 6.188722 10.451348 6.06044 10.141977 C 5.930742 9.834022 5.822273 9.507679 5.733617 9.164365 C 5.644961 8.82105 5.577551 8.467856 5.532803 8.103368 C 5.48664 7.740295 5.46315 7.371598 5.465176 7.000121 C 5.464367 6.628637 5.486249 6.260038 5.532245 5.895745 C 5.576826 5.532866 5.644111 5.178543 5.734107 4.835612 C 5.822683 4.49126 5.931151 4.1668 6.059501 3.856562 C 6.189272 3.547745 6.334692 3.263065 6.498591 2.999693 C 6.663911 2.737742 6.84205 2.502758 7.03443 2.296162 C 7.228231 2.090986 7.432022 1.915607 7.64723 1.774282 C 7.861017 1.631536 8.081971 1.524252 8.310091 1.45243 C 8.53679 1.379187 8.767827 1.344236 8.998938 1.343313 C 9.232884 1.342397 9.46266 1.379755 9.689675 1.451135 C 9.91811 1.523936 10.138113 1.630748 10.353939 1.772998 C 10.566929 1.915242 10.771481 2.08866 10.964763 2.296084 C 11.158045 2.503507 11.33579 2.737837 11.500832 2.999079 C 11.664459 3.261735 11.811122 3.547042 11.939404 3.856412 C 12.069108 4.167204 12.178992 4.492131 12.267648 4.835446 C 12.356304 5.17876 12.423714 5.531954 12.468462 5.896443 C 12.51321 6.260931 12.535279 6.628206 12.536089 6.99969 Z M 12.536089 6.99969 " stroke="rgb(93.728638%, 31.759644%, 16.468811%)" stroke-width="2" stroke-opacity="1" stroke-miterlimit="10"/><path stroke-linecap="butt" transform="matrix(1.952302, 0, 0, 1.943877, 18.363828, 273.2476)" fill="none" stroke-linejoin="round" d="M 25.000258 32.000747 L 22.999414 32.000747 " stroke="rgb(25.099182%, 24.308777%, 24.308777%)" stroke-width="2" stroke-opacity="1" stroke-miterlimit="10"/><path stroke-linecap="butt" transform="matrix(1.952302, 0, 0, 1.943877, 18.363828, 273.2476)" fill="none" stroke-linejoin="round" d="M 21.000572 32.000747 L 18.999728 32.000747 " stroke="rgb(25.099182%, 24.308777%, 24.308777%)" stroke-width="2" stroke-opacity="1" stroke-miterlimit="10"/><path stroke-linecap="butt" transform="matrix(1.952302, 0, 0, 1.943877, 18.363828, 273.2476)" fill="none" stroke-linejoin="round" d="M 17.000886 32.000747 L 15.000043 32.000747 " stroke="rgb(25.099182%, 24.308777%, 24.308777%)" stroke-width="2" stroke-opacity="1" stroke-miterlimit="10"/><g clip-path="url(#clip-12)"><path stroke-linecap="round" transform="matrix(1.952302, 0, 0, 1.943877, 18.363828, 273.2476)" fill="none" stroke-linejoin="round" d="M 28.999944 16.99972 L 35.000473 16.99972 C 36.104938 16.99972 36.999315 17.895963 36.999315 18.999187 L 36.999315 45.000298 C 36.999315 46.103521 36.104938 46.999765 35.000473 46.999765 L 13.999621 46.999765 " stroke="rgb(25.099182%, 24.308777%, 24.308777%)" stroke-width="2" stroke-opacity="1" stroke-miterlimit="10"/></g><g clip-path="url(#clip-13)"><path stroke-linecap="round" transform="matrix(1.952302, 0, 0, 1.943877, 18.363828, 273.2476)" fill="none" stroke-linejoin="round" d="M 7.999092 40.000625 L 9.999935 40.000625 L 9.999935 46.999765 L 3.000985 40.000625 L 3.000985 18.999187 C 3.000985 17.895963 3.895362 16.99972 4.999827 16.99972 L 7.000671 16.99972 " stroke="rgb(25.099182%, 24.308777%, 24.308777%)" stroke-width="2" stroke-opacity="1" stroke-miterlimit="10"/></g><g clip-path="url(#clip-14)"><path stroke-linecap="round" transform="matrix(1.952302, 0, 0, 1.943877, 18.363828, 273.2476)" fill="none" stroke-linejoin="round" d="M 23.999836 5.999636 L 26.000679 4.000169 C 26.628944 3.371191 27.293224 2.999431 27.999522 2.999431 C 28.707821 2.999431 29.372101 3.371191 30.000365 4.000169 L 46.999531 21.000664 C 47.627796 21.627632 47.999952 22.292782 47.999952 23.000131 C 47.999952 23.70748 47.627796 24.372629 46.999531 24.999598 L 36.999315 35.000953 " stroke="rgb(25.099182%, 24.308777%, 24.308777%)" stroke-width="2" stroke-opacity="1" stroke-miterlimit="10"/></g><path stroke-linecap="round" transform="matrix(1.952302, 0, 0, 1.943877, 142.837642, 273.2476)" fill="none" stroke-linejoin="round" d="M 13.170679 7.169174 C 15.059475 9.110365 16.109918 11.029452 19.999558 12.000047 " stroke="rgb(93.728638%, 31.759644%, 16.468811%)" stroke-width="2" stroke-opacity="1" stroke-miterlimit="10"/><path stroke-linecap="round" transform="matrix(1.952302, 0, 0, 1.943877, 142.837642, 273.2476)" fill="none" stroke-linejoin="round" d="M 9.170993 11.170118 C 11.10981 13.059061 13.03062 14.110038 13.999028 18.000458 " stroke="rgb(93.728638%, 31.759644%, 16.468811%)" stroke-width="2" stroke-opacity="1" stroke-miterlimit="10"/><path stroke-linecap="round" transform="matrix(1.952302, 0, 0, 1.943877, 142.837642, 273.2476)" fill="none" stroke-linejoin="round" d="M 19.999558 8.999842 C 21.600232 8.810947 23.04084 9.040032 23.999243 10.00058 C 26.120137 12.120618 25.379825 16.619922 22.000401 19.999925 C 18.620976 23.379929 14.119079 24.11943 12.000186 21.999392 C 10.319477 20.319438 10.429524 17.140386 12.250291 14.210513 " stroke="rgb(93.728638%, 31.759644%, 16.468811%)" stroke-width="2" stroke-opacity="1" stroke-miterlimit="10"/><path stroke-linecap="round" transform="matrix(1.952302, 0, 0, 1.943877, 142.837642, 273.2476)" fill="none" stroke-linejoin="round" d="M 19.999558 12.000047 C 21.058004 13.057052 20.691849 15.307708 18.999136 16.99972 " stroke="rgb(93.728638%, 31.759644%, 16.468811%)" stroke-width="2" stroke-opacity="1" stroke-miterlimit="10"/><path stroke-linecap="round" transform="matrix(1.952302, 0, 0, 1.943877, 142.837642, 273.2476)" fill="none" stroke-linejoin="round" d="M 28.999351 26.999065 L 22.000401 19.999925 " stroke="rgb(93.728638%, 31.759644%, 16.468811%)" stroke-width="2" stroke-opacity="1" stroke-miterlimit="10"/><path stroke-linecap="round" transform="matrix(1.380462, 1.374553, -1.38051, 1.374505, 157.647767, 264.862219)" fill="none" stroke-linejoin="round" d="M 12.53567 7.000108 C 12.53648 7.371591 12.513177 7.738769 12.468602 8.104484 C 12.422606 8.468778 12.356736 8.821686 12.266739 9.164617 C 12.178164 9.508969 12.069695 9.833428 11.939925 10.142246 C 11.811575 10.452484 11.66474 10.738578 11.49942 11.000529 C 11.336936 11.262487 11.157376 11.49605 10.963581 11.704061 C 10.771201 11.910657 10.567404 12.0832 10.353617 12.225946 C 10.13983 12.368693 9.917455 12.474556 9.689341 12.549214 C 9.46122 12.621036 9.231605 12.657408 8.999073 12.656909 C 8.767963 12.657831 8.538186 12.620474 8.309751 12.547673 C 8.082736 12.476292 7.861313 12.36806 7.646908 12.227231 C 7.432496 12.083566 7.227945 11.910147 7.036084 11.704145 C 6.842801 11.496721 6.663642 11.263807 6.500015 11.00115 C 6.334967 10.737072 6.188304 10.451766 6.060022 10.142396 C 5.930324 9.83444 5.821855 9.508097 5.733199 9.164783 C 5.644543 8.821468 5.577133 8.468274 5.532385 8.103786 C 5.487636 7.739298 5.464147 7.370602 5.464758 7.000539 C 5.463948 6.629056 5.485831 6.260457 5.531827 5.896163 C 5.577822 5.531869 5.643693 5.178961 5.733689 4.83603 C 5.822264 4.491678 5.932148 4.165804 6.059083 3.85698 C 6.188854 3.548163 6.335689 3.262069 6.499588 2.998696 C 6.663493 2.73816 6.841632 2.503176 7.035427 2.295165 C 7.229227 2.089989 7.431604 1.916026 7.646812 1.7747 C 7.860599 1.631954 8.081552 1.52467 8.311088 1.451433 C 8.537787 1.37819 8.768824 1.343239 8.999934 1.342317 C 9.232466 1.342815 9.462242 1.380173 9.689257 1.451553 C 9.917692 1.524354 10.137695 1.631166 10.353521 1.773416 C 10.566511 1.91566 10.771062 2.089079 10.964345 2.296502 C 11.157627 2.503925 11.336786 2.73684 11.500414 2.999497 C 11.664041 3.262154 11.810703 3.54746 11.938986 3.85683 C 12.070104 4.166207 12.178574 4.49255 12.26723 4.835864 C 12.355886 5.179178 12.423295 5.532372 12.468044 5.896861 C 12.512792 6.261349 12.534861 6.628624 12.53567 7.000108 Z M 12.53567 7.000108 " stroke="rgb(93.728638%, 31.759644%, 16.468811%)" stroke-width="2" stroke-opacity="1" stroke-miterlimit="10"/><path stroke-linecap="butt" transform="matrix(1.952302, 0, 0, 1.943877, 142.837642, 273.2476)" fill="none" stroke-linejoin="round" d="M 24.999665 32.000747 L 23.000823 32.000747 " stroke="rgb(25.099182%, 24.308777%, 24.308777%)" stroke-width="2" stroke-opacity="1" stroke-miterlimit="10"/><path stroke-linecap="butt" transform="matrix(1.952302, 0, 0, 1.943877, 142.837642, 273.2476)" fill="none" stroke-linejoin="round" d="M 20.999979 32.000747 L 18.999136 32.000747 " stroke="rgb(25.099182%, 24.308777%, 24.308777%)" stroke-width="2" stroke-opacity="1" stroke-miterlimit="10"/><path stroke-linecap="butt" transform="matrix(1.952302, 0, 0, 1.943877, 142.837642, 273.2476)" fill="none" stroke-linejoin="round" d="M 17.000293 32.000747 L 14.99945 32.000747 " stroke="rgb(25.099182%, 24.308777%, 24.308777%)" stroke-width="2" stroke-opacity="1" stroke-miterlimit="10"/><g clip-path="url(#clip-15)"><path stroke-linecap="round" transform="matrix(1.952302, 0, 0, 1.943877, 142.837642, 273.2476)" fill="none" stroke-linejoin="round" d="M 28.999351 16.99972 L 34.99988 16.99972 C 36.104346 16.99972 37.000724 17.895963 37.000724 18.999187 L 37.000724 45.000298 C 37.000724 46.103521 36.104346 46.999765 34.99988 46.999765 L 13.999028 46.999765 " stroke="rgb(25.099182%, 24.308777%, 24.308777%)" stroke-width="2" stroke-opacity="1" stroke-miterlimit="10"/></g><g clip-path="url(#clip-16)"><path stroke-linecap="round" transform="matrix(1.952302, 0, 0, 1.943877, 142.837642, 273.2476)" fill="none" stroke-linejoin="round" d="M 8.0005 40.000625 L 9.999342 40.000625 L 9.999342 46.999765 L 3.000392 40.000625 L 3.000392 18.999187 C 3.000392 17.895963 3.89677 16.99972 4.999235 16.99972 L 7.000078 16.99972 " stroke="rgb(25.099182%, 24.308777%, 24.308777%)" stroke-width="2" stroke-opacity="1" stroke-miterlimit="10"/></g><g clip-path="url(#clip-17)"><path stroke-linecap="round" transform="matrix(1.952302, 0, 0, 1.943877, 142.837642, 273.2476)" fill="none" stroke-linejoin="round" d="M 23.999243 5.999636 L 26.000087 4.000169 C 26.628352 3.371191 27.292632 2.999431 28.00093 2.999431 C 28.707228 2.999431 29.371508 3.371191 29.999773 4.000169 L 47.000939 21.000664 C 47.627203 21.627632 47.99936 22.292782 47.99936 23.000131 C 47.99936 23.70748 47.627203 24.372629 47.000939 24.999598 L 37.000724 35.000953 " stroke="rgb(25.099182%, 24.308777%, 24.308777%)" stroke-width="2" stroke-opacity="1" stroke-miterlimit="10"/></g><path stroke-linecap="round" transform="matrix(1.952302, 0, 0, 1.943877, 275.609694, 273.2476)" fill="none" stroke-linejoin="round" d="M 13.169388 7.169174 C 15.060185 9.110365 16.110628 11.029452 20.000267 12.000047 " stroke="rgb(93.728638%, 31.759644%, 16.468811%)" stroke-width="2" stroke-opacity="1" stroke-miterlimit="10"/><path stroke-linecap="round" transform="matrix(1.952302, 0, 0, 1.943877, 275.609694, 273.2476)" fill="none" stroke-linejoin="round" d="M 9.169702 11.170118 C 11.11052 13.059061 13.029329 14.110038 13.999738 18.000458 " stroke="rgb(93.728638%, 31.759644%, 16.468811%)" stroke-width="2" stroke-opacity="1" stroke-miterlimit="10"/><path stroke-linecap="round" transform="matrix(1.952302, 0, 0, 1.943877, 275.609694, 273.2476)" fill="none" stroke-linejoin="round" d="M 20.000267 8.999842 C 21.600942 8.810947 23.039548 9.040032 23.999953 10.00058 C 26.120847 12.120618 25.380535 16.619922 21.99911 19.999925 C 18.619685 23.379929 14.119789 24.11943 12.000895 21.999392 C 10.320187 20.319438 10.430233 17.140386 12.249 14.210513 " stroke="rgb(93.728638%, 31.759644%, 16.468811%)" stroke-width="2" stroke-opacity="1" stroke-miterlimit="10"/><path stroke-linecap="round" transform="matrix(1.952302, 0, 0, 1.943877, 275.609694, 273.2476)" fill="none" stroke-linejoin="round" d="M 20.000267 12.000047 C 21.058713 13.057052 20.692559 15.307708 18.999846 16.99972 " stroke="rgb(93.728638%, 31.759644%, 16.468811%)" stroke-width="2" stroke-opacity="1" stroke-miterlimit="10"/><path stroke-linecap="round" transform="matrix(1.952302, 0, 0, 1.943877, 275.609694, 273.2476)" fill="none" stroke-linejoin="round" d="M 29.000061 26.999065 L 21.99911 19.999925 " stroke="rgb(93.728638%, 31.759644%, 16.468811%)" stroke-width="2" stroke-opacity="1" stroke-miterlimit="10"/><path stroke-linecap="round" transform="matrix(1.380462, 1.374553, -1.38051, 1.374505, 290.419819, 264.862219)" fill="none" stroke-linejoin="round" d="M 12.536172 6.999606 C 12.536982 7.371089 12.513678 7.738267 12.469104 8.103982 C 12.423108 8.468276 12.355823 8.822599 12.267241 9.164115 C 12.178666 9.508467 12.068782 9.834342 11.939012 10.143159 C 11.812076 10.451982 11.665242 10.738076 11.499922 11.000028 C 11.336023 11.2634 11.156463 11.496963 10.964083 11.703559 C 10.771703 11.910156 10.566491 12.084113 10.352704 12.22686 C 10.138917 12.369606 9.916542 12.475469 9.689843 12.548712 C 9.461722 12.620534 9.232107 12.656906 8.999575 12.656407 C 8.768464 12.65733 8.537273 12.621387 8.310253 12.547171 C 8.083238 12.475791 7.8604 12.368973 7.647409 12.226729 C 7.431583 12.084479 7.228447 11.909645 7.036586 11.703643 C 6.841888 11.497634 6.664144 11.263305 6.500517 11.000648 C 6.335468 10.736571 6.188806 10.451264 6.059109 10.143309 C 5.930826 9.833938 5.822357 9.507595 5.733701 9.164281 C 5.64363 8.822381 5.577635 8.467773 5.532886 8.103284 C 5.486723 7.740211 5.463234 7.371515 5.46526 7.000037 C 5.46445 6.628554 5.486333 6.259955 5.532328 5.895661 C 5.576909 5.532782 5.644195 5.178459 5.734191 4.835528 C 5.821351 4.492591 5.931235 4.166717 6.059585 3.856479 C 6.189356 3.547661 6.334776 3.262982 6.498675 2.99961 C 6.663994 2.737658 6.842134 2.502674 7.034514 2.296078 C 7.228314 2.090903 7.432105 1.915524 7.647313 1.774199 C 7.861101 1.631452 8.082054 1.524168 8.310175 1.452346 C 8.536874 1.379103 8.767911 1.344152 8.999021 1.34323 C 9.231553 1.343728 9.462744 1.379671 9.689758 1.451051 C 9.918194 1.523853 10.138197 1.630665 10.352608 1.774329 C 10.567013 1.915158 10.770149 2.089992 10.964847 2.296 C 11.158129 2.503424 11.335873 2.737753 11.499501 3.00041 C 11.664543 3.261652 11.80979 3.548373 11.939488 3.856329 C 12.069191 4.16712 12.179075 4.492048 12.267731 4.835362 C 12.356388 5.178677 12.423797 5.531871 12.468546 5.896359 C 12.513294 6.260847 12.535363 6.628123 12.536172 6.999606 Z M 12.536172 6.999606 " stroke="rgb(93.728638%, 31.759644%, 16.468811%)" stroke-width="2" stroke-opacity="1" stroke-miterlimit="10"/><path stroke-linecap="butt" transform="matrix(1.952302, 0, 0, 1.943877, 275.609694, 273.2476)" fill="none" stroke-linejoin="round" d="M 25.000375 32.000747 L 22.999531 32.000747 " stroke="rgb(25.099182%, 24.308777%, 24.308777%)" stroke-width="2" stroke-opacity="1" stroke-miterlimit="10"/><path stroke-linecap="butt" transform="matrix(1.952302, 0, 0, 1.943877, 275.609694, 273.2476)" fill="none" stroke-linejoin="round" d="M 21.000689 32.000747 L 18.999846 32.000747 " stroke="rgb(25.099182%, 24.308777%, 24.308777%)" stroke-width="2" stroke-opacity="1" stroke-miterlimit="10"/><path stroke-linecap="butt" transform="matrix(1.952302, 0, 0, 1.943877, 275.609694, 273.2476)" fill="none" stroke-linejoin="round" d="M 16.999002 32.000747 L 15.00016 32.000747 " stroke="rgb(25.099182%, 24.308777%, 24.308777%)" stroke-width="2" stroke-opacity="1" stroke-miterlimit="10"/><g clip-path="url(#clip-18)"><path stroke-linecap="round" transform="matrix(1.952302, 0, 0, 1.943877, 275.609694, 273.2476)" fill="none" stroke-linejoin="round" d="M 29.000061 16.99972 L 35.00059 16.99972 C 36.103055 16.99972 36.999433 17.895963 36.999433 18.999187 L 36.999433 45.000298 C 36.999433 46.103521 36.103055 46.999765 35.00059 46.999765 L 13.999738 46.999765 " stroke="rgb(25.099182%, 24.308777%, 24.308777%)" stroke-width="2" stroke-opacity="1" stroke-miterlimit="10"/></g><g clip-path="url(#clip-19)"><path stroke-linecap="round" transform="matrix(1.952302, 0, 0, 1.943877, 275.609694, 273.2476)" fill="none" stroke-linejoin="round" d="M 7.999209 40.000625 L 10.000052 40.000625 L 10.000052 46.999765 L 2.999101 40.000625 L 2.999101 18.999187 C 2.999101 17.895963 3.895479 16.99972 4.999944 16.99972 L 7.000788 16.99972 " stroke="rgb(25.099182%, 24.308777%, 24.308777%)" stroke-width="2" stroke-opacity="1" stroke-miterlimit="10"/></g><g clip-path="url(#clip-20)"><path stroke-linecap="round" transform="matrix(1.952302, 0, 0, 1.943877, 275.609694, 273.2476)" fill="none" stroke-linejoin="round" d="M 23.999953 5.999636 L 26.000797 4.000169 C 26.62706 3.371191 27.293341 2.999431 27.999639 2.999431 C 28.707938 2.999431 29.372218 3.371191 30.000482 4.000169 L 46.999648 21.000664 C 47.627913 21.627632 48.000069 22.292782 48.000069 23.000131 C 48.000069 23.70748 47.627913 24.372629 46.999648 24.999598 L 36.999433 35.000953 " stroke="rgb(25.099182%, 24.308777%, 24.308777%)" stroke-width="2" stroke-opacity="1" stroke-miterlimit="10"/></g></svg>